<?xml version="1.0" encoding="utf-8"?>
<!-- Generator: Adobe Illustrator 26.0.0, SVG Export Plug-In . SVG Version: 6.00 Build 0)  -->
<svg version="1.1" id="Layer_1" xmlns="http://www.w3.org/2000/svg" xmlns:xlink="http://www.w3.org/1999/xlink" x="0px" y="0px"
	 viewBox="0 0 200 200" style="enable-background:new 0 0 200 200;" xml:space="preserve">
<style type="text/css">
	.st0{fill:#FFFFFF;}
</style>
<path class="st0" d="M150,166.7c-13.6,10.4-29.2,16-46.8,16.7H97c-17.7-0.6-33.3-6-46.8-16.3v-17.3c14.3-10.9,30.9-16.3,49.8-16.3
	c19,0,35.7,5.6,50,16.7V166.7z M133.2,83.3c0,9.2-3.3,17.1-9.8,23.5c-6.4,6.6-14.3,9.8-23.5,9.8s-17.1-3.3-23.7-9.8
	c-6.4-6.4-9.7-14.3-9.7-23.5s3.2-17.1,9.7-23.7c6.6-6.4,14.4-9.7,23.7-9.7s17.1,3.2,23.5,9.7C129.9,66.2,133.2,74.1,133.2,83.3z"/>
<path class="st0" d="M97,186.7c-18.4-0.6-34.8-6.3-48.9-17l0,0c-3.3-2.6-6.5-5.4-9.5-8.4c-16.8-16.8-25.3-37.4-25.3-61.2
	c0-23.8,8.5-44.4,25.3-61.3C55.6,21.8,76.2,13.3,100,13.3c23.8,0,44.4,8.5,61.2,25.3c16.9,16.9,25.5,37.5,25.5,61.4
	c0,23.8-8.6,44.4-25.5,61.2c-2.9,2.9-6,5.6-9.2,8.1c-14.1,10.8-30.4,16.6-48.7,17.3L97,186.7z M53.5,165.3
	c12.6,9.2,27.3,14.2,43.6,14.7l6.1,0c16.2-0.6,30.9-5.7,43.5-15v-13.4c-13.4-9.9-29.1-15-46.7-15c-17.5,0-33.1,4.9-46.5,14.7
	C53.5,151.3,53.5,165.3,53.5,165.3z M100,20c-22,0-41,7.9-56.7,23.4C27.9,59,20,78,20,100c0,22,7.9,41,23.4,56.5
	c1.1,1.1,2.3,2.3,3.5,3.3v-10.1c0-1,0.5-2,1.3-2.7c14.9-11.3,32.3-17,51.8-17c19.7,0,37.2,5.8,52,17.4c0.8,0.6,1.3,1.6,1.3,2.6v9.5
	c1.1-1,2.1-2,3.1-3C172.1,141,180,122,180,100c0-22-7.9-41-23.5-56.6C141,27.9,122,20,100,20z M99.8,120c-10.1,0-18.9-3.6-26-10.8
	c-7.1-7.1-10.6-15.8-10.6-25.9c0-10.1,3.6-18.8,10.6-26c7.2-7.1,16-10.7,26-10.7c10.1,0,18.8,3.6,25.9,10.6
	c7.2,7.2,10.8,15.9,10.8,26c0,10.1-3.6,18.8-10.8,25.9C118.6,116.4,109.9,120,99.8,120z M99.8,53.3c-8.4,0-15.4,2.8-21.3,8.7
	c-5.8,5.9-8.7,12.9-8.7,21.3c0,8.4,2.8,15.3,8.7,21.1c6,6,12.9,8.9,21.3,8.9c8.4,0,15.3-2.9,21.1-8.8c6-5.9,8.9-12.8,8.9-21.2
	c0-8.4-2.9-15.3-8.9-21.3C115.1,56.2,108.2,53.3,99.8,53.3z"/>
</svg>
