<?xml version="1.0" encoding="utf-8"?>
<!-- Generator: Adobe Illustrator 27.5.0, SVG Export Plug-In . SVG Version: 6.00 Build 0)  -->
<svg version="1.1" id="Layer_1" xmlns="http://www.w3.org/2000/svg" xmlns:xlink="http://www.w3.org/1999/xlink" x="0px" y="0px"
	 viewBox="0 0 200 200" style="enable-background:new 0 0 200 200;" xml:space="preserve">
<style type="text/css">
	.st0{fill:#FFFFFF;}
</style>
<g>
	<g id="XMLID_00000176748969064032090380000013983329085107613591_">
		<g>
			<path d="M117.3,103.1l51.4,12.2c0,10.2-1.8,18.8-5.6,26.5s-8.9,14-15.3,19.1s-14,8.9-22.7,11.7c-8.7,2.5-17.8,4.1-27.5,4.1h-0.3
				c-9.4,0-18.3-1.5-26.5-4.6c-8.1-3.1-15-7.4-20.9-13c-5.9-5.6-10.4-12.2-13.7-20.1c-3.3-7.9-5.1-16.5-5.1-26
				c0-7.9,0.8-14.3,2.3-19.3c1.5-5.1,3.6-9.7,6.1-13.2s5.6-6.9,8.9-9.7c3.3-2.5,6.9-5.3,10.4-7.6c4.3-2.8,8.7-6.1,13-9.9
				c4.3-3.8,8.1-8.1,11.5-13.5c0.5-1,0.8-2.3,1-4.1c0.3-1.8,0.5-3.6,0.8-5.3c0.3-2,0.3-4.3,0.3-6.9h46.3v12c0,7.1-0.8,13.7-2.3,19.3
				c-1.5,5.6-3.6,10.4-6.1,14.8c-2.5,4.3-5.6,8.1-8.9,11.2c-3.3,3.3-6.9,6.1-10.7,8.7c-6.9,4.3-11.7,8.1-14.3,11.2
				c-2.5,3.1-4.1,6.1-4.1,8.9c0,4.1,1.5,7.1,4.3,9.4c3.1,2.3,6.6,3.6,10.7,3.6c4.8,0,8.7-1.8,12-5.6
				C115.8,112.7,117.3,108.4,117.3,103.1z M161.9,120.9l-38.2-9.4c-1,4.8-3.8,9.2-7.9,12.5c-4.1,3.3-9.2,5.1-15,5.1
				c-5.9,0-10.9-1.8-15.3-5.3s-6.6-8.4-6.6-14.5c0-4.1,1.5-7.9,4.6-11.7c3.1-3.8,8.7-8.4,17.1-13.7c7.1-4.3,13-10.2,17.6-17.3
				c4.6-7.4,6.9-17.6,6.9-30.8v-5.1H92.6c-0.3,2-0.5,4.1-1,6.6c-0.5,2.5-1.3,4.6-2,6.1c-4.1,6.4-8.1,11.7-12.7,15.5
				c-4.6,3.8-9.2,7.1-13.5,10.2c-3.3,2.3-6.4,4.6-9.4,7.1c-3.1,2.3-5.6,5.1-7.9,8.4c-2.3,3.3-4.1,7.1-5.6,12c-1.5,4.6-2,10.2-2,17.1
				c0,8.7,1.5,16.3,4.3,23.2c3.1,6.9,7.1,13,12.5,17.8c5.3,4.8,11.7,8.9,18.8,11.5c7.1,2.8,15,4.1,23.7,4.1H98
				c8.4,0,16.3-1,23.9-3.3c7.4-2.3,14-5.3,19.9-9.7c5.6-4.1,10.4-9.2,14-15.3C159.1,135.4,161.3,128.5,161.9,120.9z"/>
			<path class="st0" d="M123.7,111.5l38.2,9.4c-0.5,7.6-2.8,14.5-6.4,20.6c-3.8,6.1-8.4,11.2-14,15.3c-5.6,4.1-12.2,7.4-19.9,9.7
				c-7.6,2.3-15.5,3.3-23.9,3.3h-0.3c-8.7,0-16.5-1.3-23.7-4.1c-7.1-2.8-13.5-6.6-18.8-11.5c-5.3-5.1-9.4-10.9-12.5-17.8
				c-3.1-6.9-4.3-14.8-4.3-23.2c0-6.6,0.8-12.2,2-17.1c1.5-4.6,3.3-8.7,5.6-12c2.3-3.3,4.8-6.1,7.9-8.4c3.1-2.3,6.1-4.8,9.4-7.1
				c4.3-3.1,8.9-6.4,13.5-10.2c4.6-3.8,8.9-8.9,12.7-15.5c1-1.5,1.8-3.6,2-6.1c0.5-2.5,0.8-4.8,1-6.6h32.6v5.1
				c0,13.2-2.3,23.7-6.9,30.8c-4.6,7.1-10.4,13-17.6,17.3c-8.4,5.3-14,9.9-17.1,13.7s-4.6,7.9-4.6,11.7c0,6.1,2.3,10.9,6.6,14.5
				s9.4,5.3,15.3,5.3c5.9,0,10.9-1.8,15-5.1C119.9,120.6,122.4,116.5,123.7,111.5z"/>
		</g>
	</g>
</g>
</svg>
