<?xml version="1.0" encoding="utf-8"?>
<!-- Generator: Adobe Illustrator 27.5.0, SVG Export Plug-In . SVG Version: 6.00 Build 0)  -->
<svg version="1.1" id="Layer_1" xmlns="http://www.w3.org/2000/svg" xmlns:xlink="http://www.w3.org/1999/xlink" x="0px" y="0px"
	 viewBox="0 0 200 200" style="enable-background:new 0 0 200 200;" xml:space="preserve">
<style type="text/css">
	.st0{fill:#010101;}
	.st1{fill:#FFFFFF;}
</style>
<g>
	<g id="XMLID_00000031885801914891508190000012251233480213389747_">
		<g>
			<path class="st0" d="M103.9,120.3c9.7,0.1,24.2-0.8,39.9-8.2c8.6-4.1,15.1-8.9,19.4-12.5c-4.1-3.6-10.1-8.3-18.2-12.5
				c-4-2.2-22.6-11.4-47.8-10.3c-30.3,1.4-51,16.9-58.1,22.8c9.9,6.8,30.8,19.1,59.2,20.5L103.9,120.3z M173.4,99.5
				c-4.3,5-11.4,12.1-21.6,18.2c-38.7,23.2-82.2,8.5-90,5.7c-8-2.9-19.8-8.2-32.4-18.2c-0.3-0.2-2.9-2.2-2.9-5.7s2.6-5.5,2.9-5.7
				c9.1-7,30.5-21.3,60.9-23.9c9.1-0.8,30.8-2.3,54.7,9.1C158.4,85.5,167.8,93.7,173.4,99.5z"/>
			<path class="st1" d="M143.8,112.1c-15.7,7.4-30.2,8.3-39.9,8.2l-5.6-0.2c-28.4-1.4-49.3-13.7-59.2-20.5
				c7.1-5.9,27.8-21.4,58.1-22.8c25.2-1.1,43.8,8.1,47.8,10.3c8.1,4.2,14.1,8.9,18.2,12.5C158.9,103.2,152.4,108,143.8,112.1z"/>
		</g>
		<g>
		</g>
	</g>
</g>
<g id="Layer_2_00000157287256830613469170000015855622461060203168_">
	<circle class="st0" cx="101.2" cy="98.5" r="15.9"/>
</g>
<g>
	<g id="XMLID_00000049179948411851278210000002595804541643698568_">
		<g>
			<path d="M131.6,30c0,3.1-0.3,5.6-0.9,7.6c-0.6,2-1.4,3.8-2.4,5.2c-1,1.5-2.2,2.7-3.5,3.8s-2.7,2.1-4.1,3
				c-1.7,1.1-3.4,2.4-5.1,3.9s-3.2,3.2-4.5,5.3c-0.2,0.4-0.3,0.9-0.4,1.6c-0.1,0.7-0.2,1.4-0.3,2.1c-0.1,0.8-0.1,1.7-0.1,2.7H92.1
				v-4.7c0-2.8,0.3-5.4,0.9-7.6c0.6-2.2,1.4-4.1,2.4-5.8s2.2-3.1,3.5-4.4c1.3-1.3,2.7-2.4,4.2-3.4c2.7-1.7,4.6-3.2,5.6-4.4
				c1.1-1.2,1.6-2.3,1.6-3.5c0-1.6-0.6-2.8-1.7-3.7c-1.2-0.9-2.6-1.4-4.2-1.4c-1.9,0-3.4,0.7-4.6,2.2s-1.9,3.2-1.9,5.3L77.7,29
				c0-4,0.7-7.4,2.2-10.4s3.5-5.5,6-7.5s5.5-3.6,8.9-4.6s7-1.6,10.8-1.6h0.1c3.7,0,7.2,0.6,10.4,1.8c3.2,1.2,5.9,2.9,8.2,5.1
				c2.3,2.2,4.1,4.8,5.4,7.9C131,22.9,131.6,26.3,131.6,30z M128.1,36.7c0.6-1.8,0.8-4,0.8-6.7c0-3.4-0.6-6.4-1.7-9.1
				c-1.2-2.7-2.8-5.1-4.9-7s-4.6-3.5-7.4-4.5c-2.8-1.1-5.9-1.6-9.3-1.6h-0.1c-3.3,0-6.4,0.4-9.4,1.3s-5.6,2.1-7.8,3.8
				c-2.2,1.6-4.1,3.6-5.6,6S80.4,24,80.2,27l15,3.7c0.4-1.9,1.5-3.6,3.1-4.9s3.6-2,5.9-2s4.3,0.7,6.1,2.1c1.7,1.4,2.6,3.3,2.6,5.7
				c0,1.6-0.6,3.1-1.8,4.6c-1.2,1.5-3.4,3.3-6.7,5.4c-2.8,1.7-5.1,4-6.9,6.8c-1.8,2.9-2.7,6.9-2.7,12.1v2h12.8
				c0.1-0.8,0.2-1.6,0.4-2.6c0.2-1,0.5-1.8,0.8-2.4c1.6-2.5,3.2-4.6,5-6.1s3.5-2.8,5.3-4c1.3-0.9,2.5-1.8,3.7-2.8
				c1.2-0.9,2.2-2,3.1-3.3C126.8,40.1,127.5,38.5,128.1,36.7z"/>
			<path class="st1" d="M128.9,30c0,2.6-0.3,4.8-0.8,6.7c-0.6,1.8-1.3,3.4-2.2,4.7c-0.9,1.3-2,2.4-3.1,3.3c-1.2,0.9-2.4,1.9-3.7,2.8
				c-1.7,1.2-3.5,2.5-5.3,4s-3.5,3.5-5,6.1c-0.4,0.6-0.7,1.4-0.8,2.4c-0.2,1-0.3,1.9-0.4,2.6H94.8v-2c0-5.2,0.9-9.3,2.7-12.1
				c1.8-2.8,4.1-5.1,6.9-6.8c3.3-2.1,5.5-3.9,6.7-5.4s1.8-3.1,1.8-4.6c0-2.4-0.8-4.3-2.6-5.7c-1.7-1.4-3.7-2.1-6.1-2.1
				c-2.3,0-4.3,0.7-5.9,2s-2.6,2.9-3.1,4.9l-15-3.7c0.2-3,1.1-5.7,2.5-8.1c1.5-2.4,3.3-4.4,5.6-6c2.2-1.6,4.8-2.9,7.8-3.8
				c2.9-0.9,6.1-1.3,9.4-1.3h0.1c3.4,0,6.5,0.5,9.3,1.6s5.3,2.6,7.4,4.5s3.7,4.3,4.9,7C128.4,23.6,128.9,26.6,128.9,30z"/>
		</g>
	</g>
</g>
<g>
	<g id="XMLID_00000176748969064032090380000013983329085107613591_">
		<g>
			<path d="M104.5,166l20.2,4.8c0,4-0.7,7.4-2.2,10.4s-3.5,5.5-6,7.5s-5.5,3.5-8.9,4.6c-3.4,1-7,1.6-10.8,1.6h-0.1
				c-3.7,0-7.2-0.6-10.4-1.8c-3.2-1.2-5.9-2.9-8.2-5.1c-2.3-2.2-4.1-4.8-5.4-7.9c-1.3-3.1-2-6.5-2-10.2c0-3.1,0.3-5.6,0.9-7.6
				s1.4-3.8,2.4-5.2s2.2-2.7,3.5-3.8c1.3-1,2.7-2.1,4.1-3c1.7-1.1,3.4-2.4,5.1-3.9s3.2-3.2,4.5-5.3c0.2-0.4,0.3-0.9,0.4-1.6
				c0.1-0.7,0.2-1.4,0.3-2.1c0.1-0.8,0.1-1.7,0.1-2.7h18.2v4.7c0,2.8-0.3,5.4-0.9,7.6c-0.6,2.2-1.4,4.1-2.4,5.8s-2.2,3.2-3.5,4.4
				c-1.3,1.3-2.7,2.4-4.2,3.4c-2.7,1.7-4.6,3.2-5.6,4.4s-1.6,2.4-1.6,3.5c0,1.6,0.6,2.8,1.7,3.7c1.2,0.9,2.6,1.4,4.2,1.4
				c1.9,0,3.4-0.7,4.7-2.2C103.9,169.8,104.5,168.1,104.5,166z M122,173l-15-3.7c-0.4,1.9-1.5,3.6-3.1,4.9c-1.6,1.3-3.6,2-5.9,2
				s-4.3-0.7-6-2.1s-2.6-3.3-2.6-5.7c0-1.6,0.6-3.1,1.8-4.6c1.2-1.5,3.4-3.3,6.7-5.4c2.8-1.7,5.1-4,6.9-6.8
				c1.8-2.9,2.7-6.9,2.7-12.1v-2H94.8c-0.1,0.8-0.2,1.6-0.4,2.6c-0.2,1-0.5,1.8-0.8,2.4c-1.6,2.5-3.2,4.6-5,6.1s-3.6,2.8-5.3,4
				c-1.3,0.9-2.5,1.8-3.7,2.8c-1.2,0.9-2.2,2-3.1,3.3s-1.6,2.8-2.2,4.7c-0.6,1.8-0.8,4-0.8,6.7c0,3.4,0.6,6.4,1.7,9.1
				c1.2,2.7,2.8,5.1,4.9,7s4.6,3.5,7.4,4.5c2.8,1.1,5.9,1.6,9.3,1.6h0.1c3.3,0,6.4-0.4,9.4-1.3c2.9-0.9,5.5-2.1,7.8-3.8
				c2.2-1.6,4.1-3.6,5.5-6C120.9,178.7,121.8,176,122,173z"/>
			<path class="st1" d="M107,169.3l15,3.7c-0.2,3-1.1,5.7-2.5,8.1c-1.5,2.4-3.3,4.4-5.5,6s-4.8,2.9-7.8,3.8c-3,0.9-6.1,1.3-9.4,1.3
				h-0.1c-3.4,0-6.5-0.5-9.3-1.6s-5.3-2.6-7.4-4.5c-2.1-2-3.7-4.3-4.9-7c-1.2-2.7-1.7-5.8-1.7-9.1c0-2.6,0.3-4.8,0.8-6.7
				c0.6-1.8,1.3-3.4,2.2-4.7c0.9-1.3,1.9-2.4,3.1-3.3c1.2-0.9,2.4-1.9,3.7-2.8c1.7-1.2,3.5-2.5,5.3-4s3.5-3.5,5-6.1
				c0.4-0.6,0.7-1.4,0.8-2.4c0.2-1,0.3-1.9,0.4-2.6h12.8v2c0,5.2-0.9,9.3-2.7,12.1c-1.8,2.8-4.1,5.1-6.9,6.8
				c-3.3,2.1-5.5,3.9-6.7,5.4s-1.8,3.1-1.8,4.6c0,2.4,0.9,4.3,2.6,5.7s3.7,2.1,6,2.1s4.3-0.7,5.9-2
				C105.5,172.9,106.5,171.3,107,169.3z"/>
		</g>
	</g>
</g>
</svg>
