<?xml version="1.0" encoding="utf-8"?>
<!-- Generator: Adobe Illustrator 26.0.0, SVG Export Plug-In . SVG Version: 6.00 Build 0)  -->
<svg version="1.1" id="Layer_1" xmlns="http://www.w3.org/2000/svg" xmlns:xlink="http://www.w3.org/1999/xlink" x="0px" y="0px"
	 viewBox="0 0 200 200" style="enable-background:new 0 0 200 200;" xml:space="preserve">
<style type="text/css">
	.st0{fill:#FFFFFF;}
</style>
<path class="st0" d="M179.9,170.7l-35.8-35.8c10-12.2,16-27.8,16-44.8c0-39.1-31.8-70.9-70.9-70.9c-39.1,0-70.9,31.8-70.9,70.9
	S50.2,161,89.3,161c17,0,32.6-6,44.8-16l35.8,35.8c1.4,1.4,3.2,2.1,5,2.1s3.6-0.7,5-2.1C182.7,177.9,182.7,173.5,179.9,170.7
	L179.9,170.7z M32.6,90.1c0-31.3,25.4-56.7,56.7-56.7S146,58.8,146,90.1s-25.4,56.7-56.7,56.7S32.6,121.3,32.6,90.1z"/>
</svg>
