<?xml version="1.0" encoding="utf-8"?>
<!-- Generator: Adobe Illustrator 27.5.0, SVG Export Plug-In . SVG Version: 6.00 Build 0)  -->
<svg version="1.1" id="レイヤー_1" xmlns="http://www.w3.org/2000/svg" xmlns:xlink="http://www.w3.org/1999/xlink" x="0px"
	 y="0px" viewBox="0 0 1920 1920" style="enable-background:new 0 0 1920 1920;" xml:space="preserve">
<style type="text/css">
	.st0{fill:#FFFFFF;}
</style>
<g id="XMLID_00000091720091101570907240000013947207520595943059_">
	<g>
		<circle class="st0" cx="959.9" cy="861.8" r="93.4"/>
		<path class="st0" d="M686,712.3h140.3c-37.2,33.2-60.8,79-65.9,128.8L686,712.3z"/>
		<path class="st0" d="M1233.5,712.5l-74.3,128.7c-5.1-49.7-28.6-95.5-65.8-128.7H1233.5z"/>
		<path class="st0" d="M1041.6,1045l-81.8,141.7L878,1045c25.5,11.4,53.1,17.4,81.3,17.4h0.5
			C988.4,1062.4,1016.1,1056.4,1041.6,1045z"/>
		<polygon class="st0" points="1392.5,1364 1013.3,1582.9 1013.3,1349.2 		"/>
		<polygon class="st0" points="1316.7,782.6 1500.7,1261.2 1050.6,1243.6 		"/>
		<polygon class="st0" points="1526.2,669 1526.2,1029.6 1398.6,697.6 		"/>
		<polygon class="st0" points="1434.1,580 1345.5,599.8 1217.3,454.8 		"/>
		<polygon class="st0" points="959.8,325.1 1207.6,605.3 712.1,605.3 		"/>
		<polygon class="st0" points="702.5,454.6 574.3,599.6 485.7,579.8 		"/>
		<polygon class="st0" points="521.2,697.3 393.6,1029.3 393.6,668.9 		"/>
		<polygon class="st0" points="603.1,782.6 869.2,1243.6 419.1,1261.2 		"/>
		<polygon class="st0" points="906.3,1349.2 906.3,1583 527.2,1364 		"/>
		<path d="M1633,1320.5v0.4c-0.3,3.7-0.9,9.3-3.1,14.9c-1.7,4.6-3.8,8.5-6.2,12.1c-3.6,5.3-8.3,10-14.1,14c-0.9,0.7-1.8,1.2-2.4,1.6
			l-0.4,0.2L986.7,1722c-8.2,4.7-17.4,7.2-26.8,7.2c-9.6,0-18.9-2.5-26.9-7.2l-619.5-357.8c-1.8-1-3.8-2.3-6.1-4l-0.2-0.2
			c-4.1-3.2-7.8-7.1-10.9-11.7c-2.5-3.6-4.5-7.6-6.2-12.2l-0.1-0.2l-0.1-0.2c-1.6-4.8-2.6-9.7-3-14.5v-0.4V602.2
			c0-19,10.3-36.7,26.8-46.3l620.2-358.4l0.2-0.1c0.1-0.1,0.3-0.1,0.4-0.2c7.7-4.1,16.4-6.3,25.2-6.3s17.5,2.2,25.1,6.3
			c0.1,0.1,0.3,0.1,0.4,0.2l0.2,0.1l620.8,358.2c16.5,9.6,26.8,27.3,26.8,46.3V1320.5z M1526.2,1029.6V669l-127.6,28.6
			L1526.2,1029.6z M1500.7,1261.2l-184-478.6l-266.1,461L1500.7,1261.2z M1345.5,599.8l88.6-19.8l-216.8-125.2L1345.5,599.8z
			 M1013.3,1582.9l379.2-218.9l-379.2-14.8V1582.9z M1159.2,841.2l74.3-128.7h-140.1C1130.6,745.7,1154.1,791.5,1159.2,841.2z
			 M1207.6,605.3L959.8,325.1L712.1,605.3H1207.6z M959.8,1186.7l81.8-141.7c-25.5,11.4-53.2,17.4-81.8,17.4h-0.5
			c-28.2,0-55.8-6-81.3-17.4L959.8,1186.7z M1053.3,861.8c0-51.5-41.9-93.4-93.4-93.4s-93.4,41.9-93.4,93.4s41.9,93.4,93.4,93.4
			S1053.3,913.3,1053.3,861.8z M906.3,1583v-233.8L527.2,1364L906.3,1583z M869.2,1243.6l-266.1-461l-184,478.6L869.2,1243.6z
			 M826.3,712.3H686l74.4,128.8C765.5,791.3,789.1,745.5,826.3,712.3z M574.3,599.6l128.2-145L485.7,579.8L574.3,599.6z
			 M393.6,1029.3l127.6-332l-127.6-28.4V1029.3z"/>
	</g>
	<g>
	</g>
</g>
</svg>
